<svg width="128" height="128" xmlns="http://www.w3.org/2000/svg">
    <path d="M 39 124 h -20 a 5 5 0 0 1 -5 -5 v -27 a 0 0 0 0 0 -10 -5 a 0 0 0 0 0 10 -5 v -27 a 5 5 0 0 1 5 -5 h 20" stroke="black" stroke-width="10" fill ="none" />
    <path d="M 89 124 h 20 a 5 5 0 0 0 5 -5 v -27 a 0 0 0 0 0 10 -5 a 0 0 0 0 0 -10 -5 v -27 a 5 5 0 0 0 -5 -5 h -20" stroke="black" stroke-width="10" fill ="none" />
    <line x1="64" y1="15" x2="63" y2="87" stroke="#5865F2" stroke-width="10" stroke-linecap="round" />
    <path d="M 64 15 l 18 18" stroke="#5865F2" stroke-width="10" stroke-linecap="round"/>
    <path d="M 64 15 l -18 18" stroke="#5865F2" stroke-width="10" stroke-linecap="round"/>
</svg>
